<svg width="638" height="612" viewBox="0 0 638 612" fill="none" xmlns="http://www.w3.org/2000/svg">
<path fill-rule="evenodd" clip-rule="evenodd" d="M337.03 0.000968801C418.586 -0.297947 478.853 68.6307 534.178 128.551C586.528 185.25 635.991 248.55 637.751 325.699C639.543 404.307 600.616 478.139 543.379 532.048C487.831 584.366 412.119 622.513 337.03 608.934C268.734 596.583 246.941 513.589 193.886 468.844C130.299 415.217 13.9419 407.897 1.19119 325.699C-11.5946 243.276 81.4459 188.06 141.322 129.991C199.766 73.3124 255.617 0.299363 337.03 0.000968801Z" fill="black"/>
<mask id="mask0_632_28" style="mask-type:alpha" maskUnits="userSpaceOnUse" x="0" y="0" width="638" height="612">
<path fill-rule="evenodd" clip-rule="evenodd" d="M337.03 0.000968801C418.586 -0.297947 478.853 68.6307 534.178 128.551C586.528 185.25 635.991 248.55 637.751 325.699C639.543 404.307 600.616 478.139 543.379 532.048C487.831 584.366 412.119 622.513 337.03 608.934C268.734 596.583 246.941 513.589 193.886 468.844C130.299 415.217 13.9419 407.897 1.19119 325.699C-11.5946 243.276 81.4459 188.06 141.322 129.991C199.766 73.3124 255.617 0.299363 337.03 0.000968801Z" fill="black"/>
</mask>
<g mask="url(#mask0_632_28)">
<path fill-rule="evenodd" clip-rule="evenodd" d="M188.28 714.299C111.505 721.408 41.1718 822.642 -26.0488 784.875C-90.4745 748.678 -58.2713 645.716 -64.803 572.108C-69.7195 516.702 -85.4392 458.545 -59.3658 409.411C-34.8398 363.192 25.7659 355.177 67.2398 323.278C110.523 289.986 135.522 233.016 188.28 218.933C248.005 202.991 320.502 203.033 367.567 243.109C414.225 282.839 393.648 359.068 418.59 415.044C448.341 481.812 535.857 527.272 526.486 599.766C517.23 671.372 443.978 724.527 375.591 747.686C314.014 768.539 253.015 708.305 188.28 714.299Z" fill="#0F0F16"/>
</g>
</svg>
