<svg width="612" height="715" viewBox="0 0 612 715" fill="none" xmlns="http://www.w3.org/2000/svg">
<path fill-rule="evenodd" clip-rule="evenodd" d="M313.414 0.857537C386.21 -10.1117 426.427 86.8701 480.831 136.467C527.773 179.262 595.697 208.696 609.426 270.717C622.94 331.768 561.82 382.216 548.765 443.367C533.231 516.128 576.221 604.756 526.328 659.949C476.521 715.046 384.003 726.82 313.414 703.718C247.147 682.032 235.908 591.943 182.3 547.36C134.572 507.668 53.0171 515.401 22.1877 461.522C-9.74975 405.706 -5.95084 329.436 25.5131 273.352C55.385 220.106 134.696 223.911 179.037 181.943C234.997 128.977 237.223 12.3383 313.414 0.857537Z" fill="black"/>
<mask id="mask0_633_35" style="mask-type:alpha" maskUnits="userSpaceOnUse" x="0" y="0" width="612" height="715">
<path fill-rule="evenodd" clip-rule="evenodd" d="M313.414 0.857537C386.21 -10.1117 426.427 86.8701 480.831 136.467C527.773 179.262 595.697 208.696 609.426 270.717C622.94 331.768 561.82 382.216 548.765 443.367C533.231 516.128 576.221 604.756 526.328 659.949C476.521 715.046 384.003 726.82 313.414 703.718C247.147 682.032 235.908 591.943 182.3 547.36C134.572 507.668 53.0171 515.401 22.1877 461.522C-9.74975 405.706 -5.95084 329.436 25.5131 273.352C55.385 220.106 134.696 223.911 179.037 181.943C234.997 128.977 237.223 12.3383 313.414 0.857537Z" fill="black"/>
</mask>
<g mask="url(#mask0_633_35)">
<path fill-rule="evenodd" clip-rule="evenodd" d="M147.28 806.299C70.5053 813.408 0.171791 914.642 -67.0488 876.875C-131.474 840.678 -99.2713 737.716 -105.803 664.108C-110.719 608.702 -126.439 550.545 -100.366 501.411C-75.8398 455.192 -15.2341 447.177 26.2398 415.278C69.5232 381.986 94.5221 325.016 147.28 310.933C207.005 294.991 279.502 295.033 326.567 335.109C373.225 374.839 352.648 451.068 377.59 507.044C407.341 573.812 494.857 619.272 485.486 691.766C476.23 763.372 402.978 816.527 334.591 839.686C273.014 860.539 212.015 800.305 147.28 806.299Z" fill="#0F0F16"/>
</g>
</svg>
