<svg width="1440" height="3791" viewBox="0 0 1440 3791" fill="none" xmlns="http://www.w3.org/2000/svg">
<g clip-path="url(#clip0_615_7)">
<path d="M-186.381 3603.25L-261.517 3561.57C-293.29 3543.94 -313 3510.46 -313 3474.12L-313 2690.75C-313 2617.53 -236.901 2569.14 -170.591 2600.19L-75.5213 2644.71C-55.7209 2653.98 -33.4273 2656.51 -12.0537 2651.9L83.1338 2631.4C134.972 2620.23 186.513 2651.47 200.6 2702.59L240.624 2847.84C247.296 2872.06 262.835 2892.87 284.153 2906.15L295.111 2912.98C351.46 2948.09 358.586 3027.35 309.401 3071.94L37.7489 3318.23C23.8629 3330.82 13.7948 3347.06 8.69287 3365.1L-41.6398 3543.03C-59.19 3605.07 -130.002 3634.54 -186.381 3603.25Z" fill="#1C1C24"/>
<path d="M1269.73 2086.64L1305.38 2140.2C1330.27 2177.6 1380.82 2187.64 1418.11 2162.6C1440.54 2147.54 1454 2122.29 1454 2095.27V1532.88C1454 1465.9 1389.44 1417.86 1325.28 1437.09L1261.59 1456.19C1204.83 1473.21 1175.24 1535.57 1197.94 1590.3L1255.82 1729.79C1266.46 1755.43 1265.96 1784.35 1254.43 1809.61L1190.03 1950.81C1171.26 1991.94 1190.85 2040.39 1232.93 2056.93C1247.95 2062.84 1260.79 2073.2 1269.73 2086.64Z" fill="#1C1C24"/>
<path d="M126.812 348.402L89.4194 322.106C59.3658 300.971 19.3794 300.601 -11.0598 321.177C-35.4096 337.637 -50 365.111 -50 394.502V909.709C-50 951.141 -24.4501 988.283 14.243 1003.1L67.9339 1023.65C123.497 1044.93 185.232 1013.28 200.391 955.744L201.685 950.833C210.575 917.092 236.409 890.424 269.851 880.468L305.684 869.8C362.712 852.822 392.388 790.104 369.352 735.242L343.029 672.555C332.178 646.713 332.67 617.503 344.385 592.041L383.08 507.941C398.622 474.162 380.703 434.443 345.094 423.739C332.686 420.01 321.781 412.438 313.949 402.115L285.24 364.271C264.848 337.391 227.105 330.928 198.931 349.493C176.949 363.978 148.345 363.546 126.812 348.402Z" fill="#1C1C24"/>
<path d="M1070.58 131.481L1124.12 38.9298C1141.99 8.02927 1174.98 -11 1210.68 -11H1371.5C1426.73 -11 1471.5 33.7715 1471.5 89V234.569C1471.5 292.902 1413.86 333.737 1358.83 314.392C1337.21 306.791 1313.43 308.286 1292.93 318.536L1288.84 320.58C1243.1 343.45 1187.46 326.184 1162.7 281.437L1137.77 236.368C1130.58 223.375 1118.33 213.945 1103.92 210.325C1069.38 201.642 1052.75 162.313 1070.58 131.481Z" fill="#1C1C24"/>
<path d="M1105.58 3620.48L1159.12 3527.93C1176.99 3497.03 1209.98 3478 1245.68 3478H1406.5C1461.73 3478 1506.5 3522.77 1506.5 3578V3723.57C1506.5 3781.9 1448.86 3822.74 1393.83 3803.39C1372.21 3795.79 1348.43 3797.29 1327.93 3807.54L1323.84 3809.58C1278.1 3832.45 1222.46 3815.18 1197.7 3770.44L1172.77 3725.37C1165.58 3712.38 1153.33 3702.95 1138.92 3699.33C1104.38 3690.64 1087.75 3651.31 1105.58 3620.48Z" fill="#1C1C24"/>
</g>
<defs>
<clipPath id="clip0_615_7">
<rect width="1440" height="3791" fill="white"/>
</clipPath>
</defs>
</svg>
