<svg width="188" height="214" viewBox="0 0 188 214" fill="none" xmlns="http://www.w3.org/2000/svg">
<path d="M28.6778 150.46L44.9468 46.9295C46.7047 35.7427 56.3439 27.5 67.668 27.5H102.779C105.588 27.5 108.391 27.7429 111.158 28.226C128.107 31.1853 142.237 42.8665 148.332 58.9562L151 66L154.671 72.9479C161.193 85.2931 161.69 99.9483 156.019 112.707L155.317 114.286C150.068 126.097 139.671 134.832 127.132 137.967L121.291 139.427C110.012 142.247 101.169 150.992 98.2232 162.239L95.7524 171.673C93.5418 180.113 85.9148 186 77.1893 186H67.25C62.1414 186 58 181.859 58 176.75C58 171.641 53.8586 167.5 48.75 167.5H43.2495C34.1899 167.5 27.2714 159.409 28.6778 150.46Z" stroke="white" stroke-width="55"/>
<path fill-rule="evenodd" clip-rule="evenodd" d="M95.0589 180.363L99.9685 149.237L100.285 147.512C100.522 146.012 101.29 144.64 102.447 143.652C103.604 142.664 105.08 142.119 106.602 142.119H110.5C116.998 142.119 122.968 141.425 128.246 140.056C133.876 138.597 138.884 136.324 143.129 133.306C147.629 130.106 151.41 125.968 154.366 121.012C157.485 115.783 159.774 109.488 161.173 102.303C162.409 95.9581 162.64 90.278 161.864 85.4185C161.042 80.2849 159.064 75.9046 155.986 72.3958C154.12 70.2705 151.731 68.4291 148.888 66.9225L148.821 66.8864L148.819 66.8044C149.812 60.4711 149.775 55.1882 148.706 50.6405C147.633 46.083 145.459 41.9817 142.057 38.1053C135.007 30.0734 122.184 26 103.946 26H53.8571C52.1828 26 50.5578 26.599 49.284 27.6871C48.0102 28.7752 47.1665 30.2867 46.9039 31.941L26.0477 164.175C25.8573 165.381 26.2037 166.607 26.9981 167.533C27.7926 168.463 28.9482 168.997 30.1694 168.997H61.2436L61.2156 169.144L59.0818 182.674C58.9176 183.726 59.2197 184.793 59.9107 185.6C60.6017 186.409 61.608 186.876 62.6716 186.876H88.7344C90.197 186.876 91.6135 186.352 92.7248 185.402C93.836 184.451 94.5747 183.134 94.8028 181.691L95.0589 180.363Z" fill="#27346A"/>
<path fill-rule="evenodd" clip-rule="evenodd" d="M148.944 66.8081C148.794 67.7649 148.628 68.7381 148.431 69.7409C141.828 103.649 119.229 115.372 90.3655 115.372H75.668C72.1422 115.372 69.1646 117.939 68.6147 121.421L58.9548 182.655C58.5954 184.936 60.3599 187.001 62.6694 187.001H88.7339C91.8182 187.001 94.4445 184.757 94.9254 181.71L95.1815 180.385L100.091 149.255L100.408 147.535C100.889 144.488 103.515 142.244 106.599 142.244H110.498C135.748 142.244 155.519 131.987 161.297 102.325C163.71 89.9305 162.463 79.5846 156.079 72.3109C154.149 70.1118 151.746 68.2917 148.944 66.8081Z" fill="#2790C3"/>
<path fill-rule="evenodd" clip-rule="evenodd" d="M142.034 64.057C141.028 63.7616 139.989 63.4974 138.917 63.2594C137.845 63.0215 136.744 62.8114 135.611 62.6292C131.645 61.9908 127.309 61.6855 122.657 61.6855H83.3951C82.4316 61.6855 81.5124 61.9055 80.6884 62.2993C78.8778 63.1675 77.5335 64.8825 77.2036 66.9783L68.8585 119.88L68.6172 121.424C69.1671 117.942 72.1446 115.375 75.6705 115.375H90.3679C119.231 115.375 141.83 103.652 148.434 69.7437C148.631 68.7409 148.797 67.7677 148.946 66.8109C147.278 65.928 145.466 65.1665 143.519 64.5198C143.032 64.3574 142.538 64.2031 142.034 64.057Z" fill="#1F264F"/>
</svg>
