<svg width="757" height="776" viewBox="0 0 757 776" fill="none" xmlns="http://www.w3.org/2000/svg">
<path fill-rule="evenodd" clip-rule="evenodd" d="M679.024 326.198C700.421 404.897 649.439 480.951 605.879 549.9C564.662 615.14 516.321 679.301 442.255 700.968C366.791 723.045 285.399 704.554 218.512 663.22C153.6 623.105 97.1574 559.846 90.8398 483.801C85.0937 414.635 159.619 372.105 189.108 309.276C224.45 233.977 201.405 119.69 277.502 86.0992C353.807 52.4164 431.223 127.996 502.81 170.802C572.684 212.585 657.664 247.636 679.024 326.198Z" fill="black"/>
<mask id="mask0_632_28" style="mask-type:alpha" maskUnits="userSpaceOnUse" x="90" y="77" width="595" height="634">
<path fill-rule="evenodd" clip-rule="evenodd" d="M679.024 326.198C700.421 404.897 649.439 480.951 605.879 549.9C564.662 615.14 516.321 679.301 442.255 700.968C366.791 723.045 285.399 704.554 218.512 663.22C153.6 623.105 97.1574 559.846 90.8398 483.801C85.0937 414.635 159.619 372.105 189.108 309.276C224.45 233.977 201.405 119.69 277.502 86.0992C353.807 52.4164 431.223 127.996 502.81 170.802C572.684 212.585 657.664 247.636 679.024 326.198Z" fill="black"/>
</mask>
<g mask="url(#mask0_632_28)">
<path fill-rule="evenodd" clip-rule="evenodd" d="M-49.4344 367.391C-76.1719 295.071 -192.16 253.336 -173.078 178.631C-154.789 107.032 -47.0005 111.489 22.4093 86.1288C74.655 67.0396 126.761 36.8035 180.97 49.2716C231.961 60.9996 255.389 117.466 296.936 149.27C340.296 182.462 401.794 191.865 429.052 239.18C459.91 292.744 478.632 362.781 452.103 418.615C425.803 473.966 346.846 473.82 299.233 512.4C242.439 558.418 221.18 654.718 148.731 664.429C77.1687 674.021 6.86575 617.022 -33.2043 556.959C-69.284 502.878 -26.8901 428.368 -49.4344 367.391Z" fill="#0F0F16"/>
</g>
</svg>
